<?xml version="1.0" encoding="UTF-8"?>
<svg version="1.1" xmlns="http://www.w3.org/2000/svg" width="300" height="168">
<path d="M0 0 C99 0 198 0 300 0 C300 55.44 300 110.88 300 168 C201 168 102 168 0 168 C0 112.56 0 57.12 0 0 Z " fill="#F5F5F5" transform="translate(0,0)"/>
<path d="M0 0 C4.15946133 2.32731765 7.56816238 4.54299449 10.5 8.3125 C10.5 8.9725 10.5 9.6325 10.5 10.3125 C9.39591797 10.85777344 9.39591797 10.85777344 8.26953125 11.4140625 C1.73530378 14.78044125 -3.12920001 17.57090003 -6.5 24.3125 C-5.51 24.3125 -4.52 24.3125 -3.5 24.3125 C-3.29375 23.755625 -3.0875 23.19875 -2.875 22.625 C-0.31752482 18.32379175 3.868013 15.15226988 8.5 13.3125 C15.28174765 12.43416656 21.7078075 12.17648912 27.625 15.9375 C32.04297222 19.41111013 34.70891994 22.93925982 36.5 28.3125 C37.16954739 35.72142607 37.12479346 42.21682422 32.5 48.3125 C27.42061322 53.49798363 22.66371537 56.112671 15.43348694 56.45967102 C14.29020432 56.46951523 13.14692169 56.47935944 11.96899414 56.48950195 C10.66736832 56.50233719 9.36574249 56.51517242 8.02467346 56.52839661 C6.61150496 56.5365632 5.19833212 56.54400709 3.78515625 56.55078125 C3.0690814 56.55485678 2.35300655 56.5589323 1.61523247 56.56313133 C-2.17179189 56.58393208 -5.95878062 56.59826211 -9.74584961 56.60766602 C-13.64758213 56.61874557 -17.54874677 56.65317965 -21.45027828 56.69283772 C-24.46066829 56.71902074 -27.47092285 56.72735907 -30.4814167 56.73094749 C-31.91948871 56.73580554 -33.35755498 56.74739734 -34.79551506 56.76598549 C-36.81006925 56.79041847 -38.82490233 56.78698805 -40.83959961 56.7824707 C-41.98367783 56.78833694 -43.12775604 56.79420319 -44.3065033 56.80024719 C-48.79908443 56.11408903 -52.01313749 54.05379888 -54.9609375 50.6015625 C-57.13553628 46.64267754 -58.26311769 43.79581641 -57.5 39.3125 C-55.19191467 35.03826791 -52.64638102 31.8793073 -48.5 29.3125 C-45.1875 29.0625 -45.1875 29.0625 -42.5 29.3125 C-42.62375 27.3634375 -42.62375 27.3634375 -42.75 25.375 C-42.71083753 17.04644871 -38.85047318 10.99555013 -33.29296875 5.03515625 C-24.05624143 -3.83934647 -11.45309568 -5.50031385 0 0 Z M-31.5 9.3125 C-36.23757318 15.7008423 -37.65017283 20.64677292 -37.5625 28.625 C-37.54896484 30.22794922 -37.54896484 30.22794922 -37.53515625 31.86328125 C-37.52355469 32.67152344 -37.51195312 33.47976562 -37.5 34.3125 C-38.51320312 34.24289063 -38.51320312 34.24289063 -39.546875 34.171875 C-45.06940971 33.86407953 -45.06940971 33.86407953 -50.0625 35.875 C-52.00090068 39.16185332 -52.5 41.4930118 -52.5 45.3125 C-50.73358828 48.11439446 -49.46950178 49.82774911 -46.5 51.3125 C-44.47451974 51.41939825 -42.44549842 51.461368 -40.41723633 51.47363281 C-39.13863235 51.48324036 -37.86002838 51.4928479 -36.54267883 51.50274658 C-35.13913145 51.50759588 -33.735582 51.51187438 -32.33203125 51.515625 C-30.89434304 51.52137819 -29.45665485 51.5271359 -28.01896667 51.53289795 C-25.00018964 51.54341172 -21.98143925 51.54925114 -18.96264648 51.55273438 C-15.10698801 51.55820368 -11.25168543 51.58219612 -7.39613819 51.61070633 C-4.42344665 51.62939923 -1.45083943 51.63454195 1.5219059 51.63607025 C2.94238532 51.63908504 4.36286368 51.64707372 5.78328514 51.66025543 C17.34147829 52.00831597 17.34147829 52.00831597 27.2421875 46.77734375 C31.88462882 40.51805218 32.22056281 36.06616177 31.5 28.3125 C29.229879 23.42300861 26.40498706 20.54986252 21.5 18.3125 C15.51959156 17.48788183 9.51723861 17.04475336 4.3125 20.5 C1.68103802 23.13146198 0.41650926 24.74829732 -0.5 28.3125 C-6.5546875 28.5078125 -6.5546875 28.5078125 -8.5 28.3125 C-9.16 27.6525 -9.82 26.9925 -10.5 26.3125 C-10.5 20.75485494 -8.84463176 17.80966466 -5.19921875 13.890625 C-2.79843947 11.66093574 -0.31368741 9.98731394 2.5 8.3125 C-1.19122479 4.05339447 -4.43521901 2.580023 -10.05078125 2.08984375 C-18.41971176 1.82361221 -25.41378123 3.22628123 -31.5 9.3125 Z " fill="#BFC6C9" transform="translate(185.5,79.6875)"/>
<path d="M0 0 C-0.66 1.65 -1.32 3.3 -2 5 C-2.55872803 4.97381592 -3.11745605 4.94763184 -3.69311523 4.9206543 C-18.36279906 3.77806742 -18.36279906 3.77806742 -31 10 C-31.65097656 10.59296875 -32.30195312 11.1859375 -32.97265625 11.796875 C-41.17480014 20.21796729 -41.53335656 29.68791946 -42 41 C-42.73605469 41.01417969 -43.47210938 41.02835938 -44.23046875 41.04296875 C-48.95803841 41.27403887 -52.15432811 41.45280054 -56.1875 44.0625 C-58.1889113 47.30616659 -58.58900721 49.21475774 -58.6640625 52.9375 C-57.59065932 56.27136398 -55.67999127 57.7978134 -53 60 C-50.25645885 60.49120794 -48.13420022 60.67686472 -45.39916992 60.63110352 C-44.65051163 60.63825882 -43.90185333 60.64541412 -43.13050842 60.65278625 C-40.66320164 60.66965122 -38.19771834 60.65028005 -35.73046875 60.62890625 C-34.00799917 60.62973542 -32.28552967 60.63219663 -30.56306458 60.63621521 C-26.95415404 60.63907203 -23.34586449 60.62438847 -19.73706055 60.59692383 C-15.12695322 60.56291775 -10.5179616 60.56883456 -5.90780163 60.5875864 C-2.34994839 60.59819456 1.20764866 60.58918282 4.76547813 60.57420158 C6.46421229 60.56904206 8.16297346 60.56947433 9.86170387 60.57574654 C22.05389912 60.79925502 22.05389912 60.79925502 33 56 C33.73927483 55.1967202 33.73927483 55.1967202 34.4934845 54.37721252 C36 53 36 53 39.1875 52.8125 C40.115625 52.874375 41.04375 52.93625 42 53 C40.62757886 58.18470207 37.33524755 61.10983497 33 64 C27.8872457 66.54896989 23.72561907 67.4467718 17.98852539 67.43579102 C17.2200679 67.44586685 16.45161041 67.45594269 15.65986633 67.46632385 C13.1389786 67.49464207 10.61869278 67.50067161 8.09765625 67.50390625 C6.33320374 67.51355692 4.5687536 67.52365011 2.80430603 67.53416443 C-0.88662276 67.55208418 -4.57734135 67.55768959 -8.26831055 67.5559082 C-12.98393855 67.5556032 -17.69821273 67.59659292 -22.41351986 67.64822483 C-26.05540591 67.68167387 -29.69696727 67.68766324 -33.33899117 67.68607903 C-35.07685586 67.68960474 -36.81473025 67.70279343 -38.55244255 67.72607613 C-54.92455689 67.92495086 -54.92455689 67.92495086 -60.68873596 62.57505798 C-63.65047507 59.0174901 -64.84396714 56.20368207 -65.4375 51.625 C-64.74683155 45.90231857 -62.64812145 41.7854649 -58.75 37.5625 C-55.07991732 35.47722575 -52.19723584 35.28455836 -48 35 C-48.061875 34.05125 -48.12375 33.1025 -48.1875 32.125 C-48.15034895 22.9301151 -44.23802386 14.34769546 -37.88671875 7.83203125 C-26.75216517 -2.4416997 -14.40076201 -4.34739985 0 0 Z " fill="#BFC6C9" transform="translate(146,86)"/>
<path d="M0 0 C0.82886719 0.00829834 1.65773437 0.01659668 2.51171875 0.02514648 C15.93599064 0.39237978 27.69874609 5.88251013 37 15.625 C42.81005704 22.57076778 47.86943257 31.42869191 47.75 40.625 C47.74097656 41.52605469 47.73195313 42.42710938 47.72265625 43.35546875 C47.71105469 44.04253906 47.69945312 44.72960937 47.6875 45.4375 C41.62024303 41.81481744 38.9648208 38.66805477 36.66015625 32.0234375 C33.24627975 22.94718754 26.7118454 16.3869191 18.0625 12.15234375 C7.16086172 7.62621714 -3.26505143 6.88450798 -14.3125 11.4375 C-25.60726111 16.87320962 -31.97756894 24.7402877 -36.3984375 36.26953125 C-37.36799748 39.62984384 -37.5467562 42.51197383 -37.625 46 C-38.05711538 53.00987179 -38.05711538 53.00987179 -40.75 55.75 C-43.3125 57.4375 -43.3125 57.4375 -45.3125 57.4375 C-46.00229119 41.53622133 -45.84334282 29.21399184 -35.19921875 16.46875 C-25.50825929 6.03541891 -14.44764939 -0.18861549 0 0 Z " fill="#FBD12A" transform="translate(147.3125,38.5625)"/>
<path d="M0 0 C3.17805936 1.23747444 5.09139011 3.23394315 7.51953125 5.609375 C8.87498047 6.90101562 8.87498047 6.90101562 10.2578125 8.21875 C12.20703125 10.859375 12.20703125 10.859375 12 13.6875 C11.73832031 14.40421875 11.47664063 15.1209375 11.20703125 15.859375 C8.70703125 16.859375 8.70703125 16.859375 5.20703125 16.859375 C1.1710663 13.78008322 -1.9872981 10.06788098 -4.79296875 5.859375 C-4.54296875 3.234375 -4.54296875 3.234375 -3.79296875 0.859375 C-1.79296875 -0.140625 -1.79296875 -0.140625 0 0 Z " fill="#FBD22E" transform="translate(102.79296875,34.140625)"/>
<path d="M0 0 C0.78955078 -0.01224609 1.57910156 -0.02449219 2.39257812 -0.03710938 C4.45057435 -0.04237279 6.50812009 0.06543715 8.5625 0.1875 C9.2225 0.8475 9.8825 1.5075 10.5625 2.1875 C10.00694444 6.74305556 10.00694444 6.74305556 8.5625 8.1875 C5.71914952 8.28736975 2.90552837 8.32627881 0.0625 8.3125 C-0.73542969 8.31636719 -1.53335938 8.32023437 -2.35546875 8.32421875 C-8.31089233 8.31410767 -8.31089233 8.31410767 -9.4375 7.1875 C-9.5625 4.1875 -9.5625 4.1875 -9.4375 1.1875 C-7.33618615 -0.91381385 -2.89603678 0.00235259 0 0 Z " fill="#FBD22B" transform="translate(208.4375,81.8125)"/>
<path d="M0 0 C0.79792969 0.00386719 1.59585938 0.00773437 2.41796875 0.01171875 C3.21589844 0.00785156 4.01382813 0.00398438 4.8359375 0 C10.79136108 0.01011108 10.79136108 0.01011108 11.91796875 1.13671875 C12.10546875 3.57421875 12.10546875 3.57421875 11.91796875 6.13671875 C9.36686535 8.68782215 7.63859793 8.4239946 4.15234375 8.45898438 C3.415 8.45576172 2.67765625 8.45253906 1.91796875 8.44921875 C1.180625 8.46533203 0.44328125 8.48144531 -0.31640625 8.49804688 C-2.45703125 8.5 -2.45703125 8.5 -6.08203125 8.13671875 C-8.08203125 5.13671875 -8.08203125 5.13671875 -7.76953125 3.01171875 C-6.32019098 -0.94102744 -3.8536386 0.00654268 0 0 Z " fill="#FBD128" transform="translate(86.08203125,80.86328125)"/>
<path d="M0 0 C1.76171875 0.9453125 1.76171875 0.9453125 3.76171875 2.9453125 C3.58070787 7.09951209 0.78826516 9.41965633 -1.98828125 12.2578125 C-3.27992188 13.61326172 -3.27992188 13.61326172 -4.59765625 14.99609375 C-7.23828125 16.9453125 -7.23828125 16.9453125 -10.06640625 16.73828125 C-10.783125 16.47660156 -11.49984375 16.21492188 -12.23828125 15.9453125 C-13.0625 13.8125 -13.0625 13.8125 -13.23828125 10.9453125 C-11.56245373 8.68068071 -10.06605535 6.97713005 -8.05078125 5.0703125 C-7.55513672 4.55984375 -7.05949219 4.049375 -6.54882812 3.5234375 C-2.87264754 -0.07018685 -2.87264754 -0.07018685 0 0 Z " fill="#FBD129" transform="translate(196.23828125,35.0546875)"/>
<path d="M0 0 C1.99954746 -0.04254356 4.00041636 -0.04080783 6 0 C7.8855253 1.8855253 7.13246689 4.57768831 7.13671875 7.08203125 C7.13285156 7.87996094 7.12898437 8.67789062 7.125 9.5 C7.12886719 10.29792969 7.13273438 11.09585937 7.13671875 11.91796875 C7.12660767 17.87339233 7.12660767 17.87339233 6 19 C3.5625 19.1875 3.5625 19.1875 1 19 C-1 17 -1 17 -1.23046875 13.59375 C-1.22647854 12.22909733 -1.21172843 10.8644434 -1.1875 9.5 C-1.18685547 8.81035156 -1.18621094 8.12070312 -1.18554688 7.41015625 C-1.14055525 2.28111049 -1.14055525 2.28111049 0 0 Z " fill="#FBD126" transform="translate(146,16)"/>
<path d="M0 0 C0.33 0 0.66 0 1 0 C1 1.98 1 3.96 1 6 C1.66 6 2.32 6 3 6 C3 7.65 3 9.3 3 11 C8.94 11.33 14.88 11.66 21 12 C21 12.33 21 12.66 21 13 C20.21753906 13.06058594 19.43507812 13.12117188 18.62890625 13.18359375 C17.61699219 13.26738281 16.60507813 13.35117188 15.5625 13.4375 C14.55316406 13.51871094 13.54382813 13.59992188 12.50390625 13.68359375 C10.06359221 13.73211468 10.06359221 13.73211468 9 15 C7.48062184 15.10662303 5.95922496 15.18494916 4.4375 15.25 C-1.05488604 15.75287941 -4.7860219 17.47042669 -9 21 C-10.35555293 22.64864545 -11.69631653 24.31003995 -13 26 C-13.99 26 -14.98 26 -16 26 C-14.60375384 20.72529228 -11.26183877 18.08340934 -7 15 C-1.7 12 -1.7 12 1 12 C0.21625 11.030625 -0.5675 10.06125 -1.375 9.0625 C-1.81585938 8.51722656 -2.25671875 7.97195312 -2.7109375 7.41015625 C-3.9666391 5.86733563 -3.9666391 5.86733563 -6 5 C-6 4.01 -6 3.02 -6 2 C-2.125 3.875 -2.125 3.875 -1 5 C-0.67 3.35 -0.34 1.7 0 0 Z " fill="#F3F1E6" transform="translate(195,78)"/>
<path d="M0 0 C0.66 0.33 1.32 0.66 2 1 C2 1.66 2 2.32 2 3 C0.390625 4.11328125 0.390625 4.11328125 -1.75 5.3125 C-5.33878442 7.43918706 -7.44375238 9.68634568 -10 13 C-10.99 13 -11.98 13 -13 13 C-11.44231707 7.11542005 -6.96306517 3.74589528 -1.8984375 0.76171875 C-1.27195313 0.51035156 -0.64546875 0.25898437 0 0 Z " fill="#F1F2F2" transform="translate(192,91)"/>
<path d="M0 0 C0.33 0 0.66 0 1 0 C1 2.31 1 4.62 1 7 C0.01 7.33 -0.98 7.66 -2 8 C-4.1875 6.75 -4.1875 6.75 -6 5 C-6 4.01 -6 3.02 -6 2 C-2.125 3.875 -2.125 3.875 -1 5 C-0.67 3.35 -0.34 1.7 0 0 Z " fill="#F7F0D5" transform="translate(195,78)"/>
</svg>
